# xmcd
#
# Track frame offsets: 
#        150
#        19315
#        35551
#        52087
#        70761
#        84810
#        108012
#        119661
#        136287
#        150195
#        171083
#
# Disc length: 2508 seconds
#
# Revision: 0
# Processed by: cddbd v1.5.2PL0 Copyright (c) Steve Scherf et al.
# Submitted via: ExactAudioCopy v0.99pb5
#
DISCID=8609ca0b
DTITLE=John Nemeth - Name the Day!
DYEAR=2010
DGENRE=Blues
TTITLE0=Breakin' Free
TTITLE1=Name the Day
TTITLE2=Do You Really Want That Woman
TTITLE3=Heartbreak With a Hammer
TTITLE4=Tuff Girl
TTITLE5=I Said Too Much
TTITLE6=Home In Your Heart
TTITLE7=Save A Little Love
TTITLE8=You Know
TTITLE9=Why Not Me
TTITLE10=Funky Feelin'
EXTD=
EXTT0=
EXTT1=
EXTT2=
EXTT3=
EXTT4=
EXTT5=
EXTT6=
EXTT7=
EXTT8=
EXTT9=
EXTT10=
PLAYORDER=
